<svg xmlns="http://www.w3.org/2000/svg" viewBox="0 0 64 64">
  <defs>
    <radialGradient id="g" cx=".5" cy=".6" r=".6">
      <stop offset="0" stop-color="#ffd07a" stop-opacity=".35"/>
      <stop offset="1" stop-color="#ffd07a" stop-opacity="0"/>
    </radialGradient>
    <linearGradient id="f" x1="0" y1="0" x2="0" y2="1">
      <stop offset="0" stop-color="#3a9055"/>
      <stop offset="1" stop-color="#1b5a31"/>
    </linearGradient>
    <linearGradient id="bgc" x1="0" y1="0" x2="0" y2="1">
      <stop offset="0" stop-color="#8e1622"/>
      <stop offset="1" stop-color="#4d0610"/>
    </linearGradient>
    <filter id="bl" x="-30%" y="-30%" width="160%" height="160%">
      <feGaussianBlur stdDeviation="1.3"/>
    </filter>
  </defs>
  <rect width="64" height="64" rx="14" fill="url(#bgc)"/>
  <circle cx="32" cy="38" r="28" fill="url(#g)"/>
  <path d="M32 12 L50 50 H14 Z" fill="url(#f)"/>
  <rect x="29" y="50" width="6" height="6" rx="1" fill="#6b3d1f"/>
  <g fill="none" stroke-linecap="round" stroke-linejoin="round">
    <path d="M32 20v30M32 28h-5M32 36h8M32 44h-11M32 44h10" stroke="#ffc062" stroke-width="3.2" filter="url(#bl)"/>
    <path d="M32 20v30M32 28h-5M32 36h8M32 44h-11M32 44h10" stroke="#fff4d8" stroke-width="1.5"/>
  </g>
  <circle cx="26" cy="28" r="2.8" fill="#ffd05a"/>
  <circle cx="41" cy="36" r="2.8" fill="#fff1cc"/>
  <circle cx="20" cy="44" r="2.8" fill="#5aa8ff"/>
  <circle cx="43" cy="44" r="2.8" fill="#ffd05a"/>
  <path d="M32.00 3.50L33.72 7.63L38.18 7.99L34.78 10.90L35.82 15.26L32.00 12.93L28.18 15.26L29.22 10.90L25.82 7.99L30.28 7.63Z" fill="#ffe29a"/>
</svg>
